<?xml version="1.0" encoding="UTF-8"?><svg id="a" xmlns="http://www.w3.org/2000/svg" width="935.84" height="150.2" xmlns:xlink="http://www.w3.org/1999/xlink" viewBox="0 0 935.84 150.2"><defs><linearGradient id="b" x1="116.01" y1="-20.27" x2="49.58" y2="89.77" gradientUnits="userSpaceOnUse"><stop offset="0" stop-color="#2aaeff"/><stop offset="1" stop-color="#fb3f72"/></linearGradient></defs><path d="M98.88,27.35l-10.37,1.79c-.37.06-.75-.08-.98-.39l-15.74-20.88c-.45-.6-.11-1.47.63-1.6l10.36-1.81c.37-.07.75.08.98.39l15.76,20.9c.45.6.11,1.47-.63,1.6ZM75.77,29.85l-15.72-20.86c-.23-.3-.61-.45-.98-.39l-10.66,1.86c-.74.13-1.08,1-.63,1.6l15.71,20.84c.23.3.6.45.98.39l10.67-1.84c.74-.13,1.09-1,.63-1.6ZM114.37,24.67c2.58-.45,4.7-2.47,5.14-5.24.18-1.1,0-2.24-.39-3.29l-4.42-12.03c-1.05-2.85-3.97-4.53-6.96-4.01l-11.6,2.03c-.74.13-1.08,1-.63,1.6l15.78,20.93c.23.3.6.45.98.39l2.12-.37ZM114.02,46.42H28.06c-3.27,0-6.2,2.39-6.51,5.65-.36,3.74,2.57,6.89,6.24,6.89h76.06c2.15,0,3.9,1.75,3.9,3.9v47.29c0,2.15-1.75,3.9-3.9,3.9H36.13c-1.12,0-2.23.3-3.19.88l-18.01,10.67V52.52c0-6.16,4.43-11.43,10.5-12.48l25.66-4.44c.74-.13,1.09-1,.63-1.6l-15.69-20.81c-.23-.3-.61-.45-.98-.39l-29.86,5.23c-1.73.3-3.25,1.31-4.2,2.79-.95,1.48-1.23,3.28-.79,4.98l1.79,15.81c.25,2.25.38,4.51.38,6.77v88.07c0,1.5.46,2.99,1.42,4.14,1.28,1.52,3.07,2.28,4.85,2.28,1.11,0,2.21-.29,3.19-.88l26-15.4h76.18c3.46,0,6.27-2.81,6.27-6.27V52.69c0-3.46-2.81-6.27-6.27-6.27ZM59.64,98.7l17.03-10.14c1.47-.87,1.46-3,0-3.87l-17.08-10.07c-1.5-.88-3.39.2-3.39,1.94l.04,20.21c0,1.74,1.9,2.82,3.4,1.93Z" style="fill:url(#b); stroke-width:0px;"/><path d="M160.17,100.75c0-2.89,1.63-5.02,4.77-5.02,9.04.38,5.9,22.22,31.13,22.22,11.92,0,20.08-6.9,20.08-16.82,0-31.25-53.6-7.66-53.6-45.31,0-13.93,11.3-24.48,31.25-24.48,21.34,0,32.51,11.8,32.51,20.46,0,3.01-1.76,5.02-5.15,5.02-9.41,0-4.64-20.58-27.74-20.58-12.68,0-19.46,7.41-19.46,16.94,0,29.25,53.72,7.41,53.72,45.31,0,15.06-14.56,24.35-32.13,24.35-24.6,0-35.4-14.43-35.4-22.09Z" style="fill:#333; stroke-width:0px;"/><path d="M235.73,91.08c0-18.83,13.81-30.88,30.88-31,13.68-.13,24.48,8.54,24.48,15.56,0,2.51-1.51,4.52-5.02,4.39-7.28-.25-7.15-15.82-21.46-15.94-10.42,0-17.82,9.67-17.82,22.09,0,17.57,9.92,28.74,23.85,28.74,8.79,0,14.56-5.52,17.45-11.8,1-1.88,4.14-1.51,3.64,1-1.76,9.16-10.04,18.7-24.6,18.7-17.45,0-31.38-13.56-31.38-31.76Z" style="fill:#333; stroke-width:0px;"/><path d="M342.54,69.75c0,3.26-1.51,5.9-5.02,5.9-6.53,0-3.39-8.79-11.17-8.79-6.9,0-10.67,7.91-10.67,17.32v28.62c0,4.39,5.27,4.52,5.27,6.78v.5c0,1-.88,1.51-2.51,1.51h-15.56c-1.63,0-2.51-.5-2.51-1.51v-.5c0-2.26,4.64-2.39,4.64-6.78v-38.16c0-4.77-5.02-4.89-5.02-7.28v-.25c0-.88.75-1.63,1.88-2.26l9.54-4.27c2.38-1.13,3.26-.13,3.26,1.76v10.04c2.76-8.03,8.54-12.3,16.32-12.3s11.55,4.39,11.55,9.67Z" style="fill:#333; stroke-width:0px;"/><path d="M400.66,104.89c-1.51,7.53-9.79,17.95-25.48,17.95s-29.12-12.3-29.12-31.88c0-17.7,12.93-30.88,29.62-30.88,15.06,0,23.35,9.92,23.35,18.58,0,4.02-2.13,6.15-5.9,7.41l-34.77,11.42c2.89,10.79,10.54,17.32,20.71,17.32,9.29,0,15.19-4.89,17.95-10.92,1.13-1.76,4.02-1.38,3.64,1ZM356.98,86.94c0,2.26.13,4.39.5,6.4l27.99-10.04c2.13-.88,3.01-2.26,3.01-4.39,0-5.65-6.02-14.81-14.69-14.81-10.17,0-16.82,10.04-16.82,22.84Z" style="fill:#333; stroke-width:0px;"/><path d="M462.78,104.89c-1.51,7.53-9.79,17.95-25.48,17.95s-29.12-12.3-29.12-31.88c0-17.7,12.93-30.88,29.62-30.88,15.06,0,23.35,9.92,23.35,18.58,0,4.02-2.13,6.15-5.9,7.41l-34.77,11.42c2.89,10.79,10.54,17.32,20.71,17.32,9.29,0,15.19-4.89,17.95-10.92,1.13-1.76,4.02-1.38,3.64,1ZM419.1,86.94c0,2.26.13,4.39.5,6.4l27.99-10.04c2.13-.88,3.01-2.26,3.01-4.39,0-5.65-6.02-14.81-14.69-14.81-10.17,0-16.82,10.04-16.82,22.84Z" style="fill:#333; stroke-width:0px;"/><path d="M535.08,119.58v.5c0,1-1,1.63-2.64,1.63h-14.94c-1.63,0-2.64-.63-2.64-1.63v-.5c0-2.39,4.77-2.39,4.52-6.9l-1.26-25.1c-.63-15.31-6.78-22.59-15.44-22.59-9.29,0-15.69,7.41-15.69,17.32v30.5c0,4.39,5.02,4.39,5.02,6.78v.5c0,1-1,1.63-2.64,1.63h-15.69c-1.51,0-2.51-.63-2.51-1.63v-.5c0-2.39,4.9-2.39,4.9-6.78v-38.03c0-5.4-5.27-5.15-5.27-7.41v-.38c0-.88.75-1.38,2.01-1.88l9.41-4.52c2.38-1.26,3.51,0,3.51,1.88v9.16c3.64-7.03,10.92-11.55,19.58-11.55,12.3,0,22.59,8.28,23.85,27.74l1.38,24.73c.25,4.64,4.52,4.64,4.52,7.03Z" style="fill:#333; stroke-width:0px;"/><path d="M552.9,120.08v-.25c0-2.39,4.64-2.51,4.64-7.03V37.86h-17.07c-6.4,0-7.15,13.56-10.79,13.56h-1.13c-1.26,0-1.88-.75-1.63-2.51l2.01-13.68c.25-1.76,1.13-2.76,3.14-2.76h62.38c2.01,0,2.89,1,3.26,2.76l2.76,13.81c.38,1.63-.38,2.38-1.51,2.38h-1.26c-3.64,0-5.27-13.56-11.55-13.56h-17.32v74.94c0,4.52,4.9,4.64,4.9,7.03v.25c0,1-1,1.51-2.64,1.51h-15.69c-1.51,0-2.51-.5-2.51-1.51Z" style="fill:#333; stroke-width:0px;"/><path d="M638.88,69.75c0,3.26-1.51,5.9-5.02,5.9-6.53,0-3.39-8.79-11.17-8.79-6.9,0-10.67,7.91-10.67,17.32v28.62c0,4.39,5.27,4.52,5.27,6.78v.5c0,1-.88,1.51-2.51,1.51h-15.56c-1.63,0-2.51-.5-2.51-1.51v-.5c0-2.26,4.64-2.39,4.64-6.78v-38.16c0-4.77-5.02-4.89-5.02-7.28v-.25c0-.88.75-1.63,1.88-2.26l9.54-4.27c2.38-1.13,3.26-.13,3.26,1.76v10.04c2.76-8.03,8.54-12.3,16.32-12.3s11.55,4.39,11.55,9.67Z" style="fill:#333; stroke-width:0px;"/><path d="M701.76,119.7c0,1.88-3.39,2.64-8.03,2.64-5.65,0-8.66-1.38-9.16-8.28-2.89,5.27-8.91,8.79-18.08,8.79-13.81,0-23.35-6.9-23.35-18.95-.13-12.05,9.92-18.58,22.97-18.58,6.65,0,12.05,1.88,15.44,5.02l-.25-3.39c-1.38-14.81-5.4-22.84-15.44-22.84-13.05,0-11.05,14.31-17.32,14.31-3.01,0-4.9-1.76-4.9-4.64,0-6.65,8.54-13.68,22.22-13.68,15.44,0,24.73,9.92,26.36,26.48l2.51,24.98c.75,7.78,7.03,5.02,7.03,8.16ZM682.93,105.02l-.5-5.65c-1.25-5.9-6.4-10.04-13.81-10.04-8.54,0-14.43,5.27-14.43,13.05,0,9.16,6.03,16.44,15.06,16.44,8.41,0,13.93-6.15,13.68-13.81Z" style="fill:#333; stroke-width:0px;"/><path d="M705.14,91.08c0-18.83,13.81-30.88,30.88-31,13.68-.13,24.48,8.54,24.48,15.56,0,2.51-1.51,4.52-5.02,4.39-7.28-.25-7.15-15.82-21.46-15.94-10.42,0-17.82,9.67-17.82,22.09,0,17.57,9.92,28.74,23.85,28.74,8.79,0,14.56-5.52,17.45-11.8,1-1.88,4.14-1.51,3.64,1-1.76,9.16-10.04,18.7-24.6,18.7-17.45,0-31.38-13.56-31.38-31.76Z" style="fill:#333; stroke-width:0px;"/><path d="M831.41,119.83v.25c0,1-.75,1.51-1.88,1.51h-16.69c-1.13,0-1.88-.63-1.88-1.51v-.25c0-2.39,4.64-2.51,2.26-5.4l-19.08-23.97-9.54,8.79v13.56c0,4.39,4.9,4.27,4.9,6.78v.38c0,1-1,1.63-2.64,1.63h-15.31c-1.51,0-2.51-.63-2.51-1.63v-.38c0-2.51,4.52-2.39,4.52-6.78V42.26c0-4.9-4.89-5.65-4.89-7.53v-.25c0-1,.63-1.38,1.76-2.01l10.17-4.77c2.51-1.13,4.02.13,4.02,1.76v63.01l25.35-22.34c3.26-2.89-2.76-4.64-2.76-6.9v-.38c0-1,.88-1.51,2.01-1.51h14.18c1,0,1.76.5,1.76,1.38v.38c0,2.39-4.9,3.51-8.79,6.9l-14.94,13.81,23.72,30.63c2.26,2.89,6.28,3.14,6.28,5.4Z" style="fill:#333; stroke-width:0px;"/><path d="M885.13,104.89c-1.51,7.53-9.79,17.95-25.48,17.95s-29.12-12.3-29.12-31.88c0-17.7,12.93-30.88,29.62-30.88,15.06,0,23.35,9.92,23.35,18.58,0,4.02-2.13,6.15-5.9,7.41l-34.77,11.42c2.89,10.79,10.54,17.32,20.71,17.32,9.29,0,15.19-4.89,17.95-10.92,1.13-1.76,4.02-1.38,3.64,1ZM841.45,86.94c0,2.26.13,4.39.5,6.4l27.99-10.04c2.13-.88,3.01-2.26,3.01-4.39,0-5.65-6.03-14.81-14.69-14.81-10.17,0-16.82,10.04-16.82,22.84Z" style="fill:#333; stroke-width:0px;"/><path d="M935.84,69.75c0,3.26-1.51,5.9-5.02,5.9-6.53,0-3.39-8.79-11.17-8.79-6.9,0-10.67,7.91-10.67,17.32v28.62c0,4.39,5.27,4.52,5.27,6.78v.5c0,1-.88,1.51-2.51,1.51h-15.56c-1.63,0-2.51-.5-2.51-1.51v-.5c0-2.26,4.64-2.39,4.64-6.78v-38.16c0-4.77-5.02-4.89-5.02-7.28v-.25c0-.88.75-1.63,1.88-2.26l9.54-4.27c2.38-1.13,3.26-.13,3.26,1.76v10.04c2.76-8.03,8.54-12.3,16.32-12.3s11.55,4.39,11.55,9.67Z" style="fill:#333; stroke-width:0px;"/></svg>